<svg width="75" height="101" viewBox="0 0 75 101" fill="none" xmlns="http://www.w3.org/2000/svg">
<g clip-path="url(#clip0)">
<path d="M37.8301 69.8424C55.227 69.8424 69.3301 55.7394 69.3301 38.3424C69.3301 20.9454 55.227 6.84238 37.8301 6.84238C20.4331 6.84238 6.33008 20.9454 6.33008 38.3424C6.33008 55.7394 20.4331 69.8424 37.8301 69.8424Z" fill="#342F31"/>
<path d="M38.1613 69.8424C58.2949 69.8424 74.6411 83.5795 74.6411 100.5H1.01904C1.01904 83.5795 17.6618 69.8424 38.1613 69.8424Z" fill="#342F31"/>
<path d="M13.9186 18.455C15.6665 16.1585 18.3233 13.8621 21.8891 11.5656C19.9074 10.4 18.4925 9.36668 17.6446 8.46564C16.1084 6.83307 14.6196 4.83307 14.0801 2.86752C13.8796 2.13662 14.1225 0.0303578 13.9186 0.70969C12.7067 4.74588 12.7067 10.661 13.9186 18.455ZM61.8813 18.455C60.1334 16.1585 57.4766 13.8621 53.9109 11.5656C55.8926 10.4 57.3073 9.36668 58.1552 8.46564C59.6916 6.83307 61.1804 4.83307 61.7196 2.86752C61.9204 2.13662 61.6773 0.0303578 61.8813 0.70969C63.0931 4.74588 63.0931 10.661 61.8813 18.455Z" fill="#D04747"/>
</g>
<defs>
<clipPath id="clip0">
<rect width="73.8318" height="100" fill="white" transform="translate(0.914185 0.5)"/>
</clipPath>
</defs>
</svg>
