<svg width="75" height="100" viewBox="0 0 75 100" fill="none" xmlns="http://www.w3.org/2000/svg">
<g clip-path="url(#clip0)">
<path d="M37.3562 69.3418C54.7324 69.3418 68.8186 55.3215 68.8186 38.0266C68.8186 20.7316 54.7324 6.71133 37.3562 6.71133C19.98 6.71133 5.8938 20.7316 5.8938 38.0266C5.8938 55.3215 19.98 69.3418 37.3562 69.3418Z" fill="#342F31"/>
<path d="M37.6874 69.3424C57.821 69.3424 74.1672 83.0795 74.1672 100H0.545197C0.545197 83.0795 17.188 69.3424 37.6874 69.3424Z" fill="#342F31"/>
<path d="M13.4448 17.955C15.1927 15.6585 17.8495 13.3621 21.4153 11.0656C19.4335 9.90001 18.0187 8.86668 17.1708 7.96563C15.6346 6.33306 14.1458 4.33306 13.6063 2.36751C13.4058 1.63661 13.6487 -0.46965 13.4448 0.209682C12.2328 4.24587 12.2328 10.161 13.4448 17.955ZM61.4075 17.955C59.6596 15.6585 57.0028 13.3621 53.4371 11.0656C55.4188 9.90001 56.8335 8.86668 57.6813 7.96563C59.2177 6.33306 60.7065 4.33306 61.2458 2.36751C61.4465 1.63661 61.2034 -0.46965 61.4075 0.209682C62.6193 4.24587 62.6193 10.161 61.4075 17.955Z" fill="#D04747"/>
</g>
<defs>
<clipPath id="clip0">
<rect width="73.8318" height="100" fill="white" transform="translate(0.440308)"/>
</clipPath>
</defs>
</svg>
