<svg width="75" height="101" viewBox="0 0 75 101" fill="none" xmlns="http://www.w3.org/2000/svg">
<path fill-rule="evenodd" clip-rule="evenodd" d="M38.4474 6.27172C33.9265 7.008 28.0988 9.1517 22.1086 12.6008L22.1086 12.6008C16.1184 16.0498 11.2769 20.0491 8.27542 23.6447C6.76791 25.4506 5.8129 27.0497 5.35792 28.3331C4.89943 29.6264 5.04694 30.2819 5.20653 30.5819L3.14634 31.7606L5.20655 30.5819C5.36504 30.8799 5.81659 31.3552 7.10901 31.6368C8.39288 31.9166 10.2002 31.9242 12.471 31.5544C16.9919 30.8181 22.8197 28.6744 28.8099 25.2252L28.8099 25.2252C34.8001 21.7763 39.6416 17.777 42.6431 14.1813C44.1506 12.3754 45.1056 10.7764 45.5606 9.49297C46.0191 8.19964 45.8716 7.54415 45.712 7.24416C45.5534 6.94618 45.1018 6.47085 43.8094 6.18924C42.5255 5.90947 40.7182 5.9019 38.4474 6.27172ZM44.8009 1.29609C46.8546 1.74362 48.8446 2.7818 49.9336 4.82884L49.9337 4.82888C51.0217 6.87402 50.8105 9.17456 50.086 11.2182C49.358 13.2718 48.0107 15.3907 46.2885 17.4538C42.8306 21.5961 37.5032 25.9389 31.1504 29.5966C24.7978 33.2544 18.4309 35.645 13.219 36.4938C10.6234 36.9165 8.17982 36.9794 6.11752 36.53C4.06376 36.0824 2.07384 35.0443 0.984834 32.9972C-0.103186 30.952 0.107994 28.6515 0.83249 26.6078C1.5605 24.5543 2.90781 22.4353 4.63001 20.3723C8.08789 16.2299 13.4153 11.8872 19.7681 8.22943L20.9383 10.4151L19.7681 8.22943C26.1206 4.57168 32.4875 2.18107 37.6993 1.33226C40.295 0.90953 42.7385 0.84671 44.8009 1.29609Z" fill="#FFD500"/>
<path d="M37.1438 71.6128C53.6611 71.6128 67.051 58.1801 67.051 41.61C67.051 25.0399 53.6611 11.6071 37.1438 11.6071C20.6265 11.6071 7.23657 25.0399 7.23657 41.61C7.23657 58.1801 20.6265 71.6128 37.1438 71.6128Z" fill="#342F31"/>
<path d="M35.5351 71.6133C54.6735 71.6133 70.2117 84.7748 70.2117 100.986H0.22879C0.22879 84.7748 16.0489 71.6133 35.5351 71.6133Z" fill="#342F31"/>
</svg>
