<svg width="75" height="101" viewBox="0 0 75 101" fill="none" xmlns="http://www.w3.org/2000/svg">
<path fill-rule="evenodd" clip-rule="evenodd" d="M38.4709 4.16468C33.95 4.67517 28.1223 6.16145 22.1321 8.55282C16.142 10.9441 11.3005 13.7169 8.29895 16.2099C6.79144 17.462 5.83643 18.5706 5.38145 19.4605C4.92295 20.3572 5.07047 20.8116 5.23006 21.0196C5.38855 21.2262 5.84012 21.5558 7.13254 21.751C8.41641 21.945 10.2237 21.9503 12.4945 21.6939C17.0154 21.1834 22.8432 19.6971 28.8335 17.3057C34.8236 14.9145 39.6651 12.1416 42.6666 9.64864C44.1741 8.39656 45.1291 7.28789 45.5841 6.39807C46.0426 5.50136 45.8951 5.04689 45.7355 4.8389C45.5769 4.63231 45.1253 4.30275 43.8329 4.10749C42.549 3.91353 40.7417 3.90827 38.4709 4.16468ZM44.8244 0.714939C46.8782 1.02522 48.8681 1.74502 49.9572 3.16429C51.0452 4.58225 50.834 6.1773 50.1095 7.59423C49.3815 9.01804 48.0342 10.4871 46.312 11.9175C42.8541 14.7895 37.5267 17.8005 31.174 20.3365C24.8214 22.8725 18.4544 24.53 13.2425 25.1185C10.6469 25.4116 8.20335 25.4552 6.14104 25.1436C4.08729 24.8333 2.09737 24.1135 1.00836 22.6942C-0.0796565 21.2763 0.131523 19.6812 0.85602 18.2643C1.58403 16.8405 2.93134 15.3714 4.65354 13.941C8.11142 11.069 13.4389 8.05803 19.7916 5.52202C26.1441 2.98599 32.511 1.32852 37.7229 0.740013C40.3185 0.446923 42.7621 0.403368 44.8244 0.714939Z" fill="#FFD500"/>
<path d="M37.1674 69.8424C54.5643 69.8424 68.6674 55.7394 68.6674 38.3424C68.6674 20.9454 54.5643 6.84238 37.1674 6.84238C19.7704 6.84238 5.66736 20.9454 5.66736 38.3424C5.66736 55.7394 19.7704 69.8424 37.1674 69.8424Z" fill="#342F31"/>
<path d="M37.4985 69.8424C57.6322 69.8424 73.9784 83.5795 73.9784 100.5H0.356323C0.356323 83.5795 16.9991 69.8424 37.4985 69.8424Z" fill="#342F31"/>
</svg>
