<svg width="75" height="101" viewBox="0 0 75 101" fill="none" xmlns="http://www.w3.org/2000/svg">
<path fill-rule="evenodd" clip-rule="evenodd" d="M38.641 4.16468C34.1201 4.67517 28.2923 6.16145 22.3022 8.55282C16.3121 10.9441 11.4705 13.7169 8.46899 16.2099C6.96148 17.462 6.00648 18.5706 5.55149 19.4605C5.093 20.3572 5.24051 20.8116 5.40011 21.0196C5.5586 21.2262 6.01016 21.5558 7.30258 21.751C8.58645 21.945 10.3938 21.9503 12.6645 21.6939C17.1854 21.1834 23.0132 19.6971 29.0035 17.3057C34.9936 14.9145 39.8351 12.1416 42.8367 9.64864C44.3442 8.39656 45.2992 7.28789 45.7542 6.39807C46.2126 5.50136 46.0651 5.04689 45.9055 4.8389C45.747 4.63231 45.2954 4.30275 44.003 4.10749C42.7191 3.91353 40.9117 3.90827 38.641 4.16468ZM44.9944 0.714939C47.0482 1.02522 49.0381 1.74502 50.1272 3.16429C51.2152 4.58225 51.0041 6.1773 50.2796 7.59423C49.5516 9.01804 48.2043 10.4871 46.4821 11.9175C43.0242 14.7895 37.6968 17.8005 31.344 20.3365C24.9914 22.8725 18.6245 24.53 13.4126 25.1185C10.817 25.4116 8.37339 25.4552 6.31109 25.1436C4.25733 24.8333 2.26741 24.1135 1.17841 22.6942C0.0903874 21.2763 0.301567 19.6812 1.02606 18.2643C1.75407 16.8405 3.10139 15.3714 4.82358 13.941C8.28147 11.069 13.6089 8.05803 19.9617 5.52202C26.3142 2.98599 32.681 1.32852 37.8929 0.740013C40.4885 0.446923 42.9321 0.403368 44.9944 0.714939Z" fill="#FFD500"/>
<path d="M37.3374 69.8424C54.7344 69.8424 68.8374 55.7394 68.8374 38.3424C68.8374 20.9454 54.7344 6.84238 37.3374 6.84238C19.9404 6.84238 5.8374 20.9454 5.8374 38.3424C5.8374 55.7394 19.9404 69.8424 37.3374 69.8424Z" fill="#342F31"/>
<path d="M24.4489 85.7577C24.3315 85.6211 24.2732 85.4274 24.2012 85.2643C24.035 84.8853 23.8666 84.5073 23.6877 84.1336C23.5173 83.7801 23.3352 83.4306 23.1181 83.1023C22.8333 82.6714 22.3134 82.4503 21.8498 82.265C20.6365 81.778 19.2961 81.726 18.0151 81.5662C16.5244 81.3799 15.0338 81.1787 13.5653 80.8548C11.9677 80.5022 10.045 79.8247 9.03928 78.4567C8.76931 78.0893 8.67076 77.6542 8.73544 77.2085C8.75444 77.0804 8.91861 77.0052 9.03186 77.0402C10.0229 77.3408 11.0456 77.5282 12.0789 77.5875C12.927 77.6363 13.8522 77.5992 14.6452 77.2551C13.3906 76.8877 12.0885 76.7151 10.8127 76.4335C9.4903 76.1402 8.28229 75.6681 7.15263 74.9217C5.3423 73.7275 3.18566 71.7159 3.40906 69.3327C3.42582 69.1485 3.59963 69.0352 3.77108 69.1241C5.83871 70.1934 8.16163 71.2384 10.5289 71.1897C9.50941 70.8975 8.51842 70.5164 7.57405 70.0187C6.17126 69.2798 4.92933 68.2676 3.81663 67.1464C2.8108 66.1333 1.92361 64.9994 1.25447 63.7363C0.618221 62.5325 0.178752 61.1054 0.570505 59.7545C0.624499 59.5702 0.837358 59.5331 0.973936 59.6486C3.02142 61.3827 5.21414 62.9179 7.61206 64.1301C9.77293 65.2217 12.0767 65.9363 14.3456 66.76C18.464 68.256 22.8757 70.1109 25.5119 73.792C27.0672 75.9624 27.442 78.7352 27.0365 81.3334C27.0343 81.3492 27.0312 81.3662 27.029 81.382C27.0258 81.3958 27.0215 81.4106 27.0184 81.4243V81.4254C26.8352 82.156 26.6256 82.8611 26.2964 83.5428C26.1386 83.87 24.8312 86.2013 24.4489 85.7577Z" fill="white"/>
<path d="M50.2257 85.7577C50.3432 85.6211 50.4015 85.4274 50.4735 85.2643C50.6397 84.8853 50.8081 84.5073 50.9869 84.1336C51.1574 83.7801 51.3395 83.4306 51.5566 83.1023C51.8414 82.6714 52.3612 82.4503 52.8249 82.265C54.0381 81.778 55.3786 81.726 56.6595 81.5662C58.1503 81.3799 59.6409 81.1787 61.1094 80.8548C62.707 80.5022 64.6296 79.8247 65.6354 78.4567C65.9054 78.0893 66.0039 77.6542 65.9392 77.2085C65.9202 77.0804 65.7561 77.0052 65.6428 77.0402C64.6518 77.3408 63.6291 77.5282 62.5958 77.5875C61.7477 77.6363 60.8225 77.5992 60.0294 77.2551C61.2841 76.8877 62.5862 76.7151 63.862 76.4335C65.1844 76.1402 66.3924 75.6681 67.522 74.9217C69.3324 73.7275 71.489 71.7159 71.2656 69.3327C71.2489 69.1485 71.0751 69.0352 70.9036 69.1241C68.836 70.1934 66.5131 71.2384 64.1458 71.1897C65.1653 70.8975 66.1563 70.5164 67.1006 70.0187C68.5034 69.2798 69.7454 68.2676 70.8581 67.1464C71.8639 66.1333 72.7511 64.9994 73.4202 63.7363C74.0565 62.5325 74.4959 61.1054 74.1042 59.7545C74.0502 59.5703 73.8373 59.5331 73.7007 59.6486C71.6533 61.3828 69.4605 62.9179 67.0626 64.1301C64.9018 65.2217 62.5979 65.9363 60.3291 66.76C56.2107 68.256 51.799 70.1109 49.1628 73.792C47.6075 75.9624 47.2327 78.7352 47.6382 81.3334C47.6404 81.3492 47.6435 81.3662 47.6457 81.382C47.6489 81.3958 47.6532 81.4106 47.6562 81.4243V81.4254C47.8395 82.156 48.0491 82.8612 48.3783 83.5428C48.5361 83.87 49.8435 86.2013 50.2257 85.7577Z" fill="white"/>
<path fill-rule="evenodd" clip-rule="evenodd" d="M27.0365 81.3334C27.442 78.7352 27.0672 75.9624 25.5119 73.792C22.8757 70.1109 18.464 68.256 14.3456 66.76C13.8435 66.5777 13.3397 66.4008 12.8361 66.2239C11.0641 65.6015 9.29473 64.9801 7.61206 64.1301C5.4233 63.0236 3.4055 61.6481 1.51307 60.0977L1.50993 60.0952C1.46872 60.0614 1.42756 60.0275 1.38647 59.9936C1.38492 59.9923 1.38337 59.9911 1.38182 59.9898C1.24522 59.8769 1.10926 59.7632 0.973936 59.6486C0.837358 59.5331 0.624498 59.5702 0.570505 59.7545C0.522718 59.9193 0.487299 60.0852 0.463097 60.2517L0.462872 60.2533C0.451569 60.3312 0.442728 60.4094 0.436226 60.4875C0.435816 60.4925 0.435417 60.4974 0.435026 60.5023C0.346275 61.6205 0.734713 62.7529 1.25447 63.7363C1.92361 64.9994 2.8108 66.1333 3.81663 67.1464C4.55275 67.8882 5.34543 68.5822 6.20383 69.181C6.64296 69.4873 7.09929 69.7686 7.57405 70.0187C8.51842 70.5164 9.50941 70.8975 10.5289 71.1897C9.41689 71.2125 8.31466 70.9941 7.24408 70.6452C6.72735 70.4767 6.21787 70.2779 5.71835 70.0611C5.27143 69.8672 4.83239 69.6589 4.40297 69.4452C4.38718 69.4373 4.37104 69.4293 4.35528 69.4214C4.35316 69.4203 4.35103 69.4193 4.34891 69.4182C4.15425 69.321 3.96158 69.2226 3.77108 69.1241C3.59963 69.0352 3.42583 69.1485 3.40906 69.3327C3.39286 69.5055 3.38918 69.6764 3.39697 69.8451L3.39707 69.8473C3.40032 69.9169 3.40553 69.986 3.4126 70.0549C3.41295 70.0582 3.41331 70.0616 3.41366 70.065C3.63129 72.1261 5.53091 73.8519 7.15263 74.9217C8.28229 75.6681 9.4903 76.1402 10.8127 76.4335C10.8364 76.4388 10.86 76.4439 10.8837 76.4491C11.2974 76.539 11.7136 76.6181 12.13 76.6967C12.1507 76.7006 12.1716 76.7046 12.1923 76.7085C13.0165 76.864 13.8406 77.0195 14.6452 77.2551C13.8522 77.5992 12.927 77.6363 12.0789 77.5875C11.6147 77.5609 11.1527 77.5084 10.6947 77.4314C10.1331 77.337 9.5777 77.2057 9.03186 77.0402C8.91861 77.0052 8.75444 77.0804 8.73544 77.2085C8.70159 77.4418 8.71245 77.6722 8.7692 77.8914C8.76987 77.894 8.77056 77.8967 8.77125 77.8993C8.78143 77.9378 8.79305 77.976 8.80609 78.0139L8.8071 78.0168C8.86057 78.171 8.93782 78.3186 9.03928 78.4567C10.045 79.8247 11.9677 80.5022 13.5653 80.8548C15.0338 81.1787 16.5244 81.3799 18.0151 81.5662C18.275 81.5986 18.5373 81.6266 18.8005 81.6547C19.8348 81.765 20.8827 81.8768 21.8498 82.265C22.3134 82.4503 22.8333 82.6714 23.1181 83.1023C23.3352 83.4306 23.5173 83.7801 23.6877 84.1336C23.8666 84.5073 24.035 84.8853 24.2012 85.2643C24.2185 85.3035 24.235 85.3445 24.2517 85.386C24.3046 85.5172 24.3597 85.6539 24.4489 85.7577C24.8312 86.2013 26.1386 83.87 26.2964 83.5428C26.6256 82.8611 26.8352 82.156 27.0184 81.4254V81.4243C27.0202 81.4166 27.0222 81.4086 27.0243 81.4007C27.026 81.3944 27.0276 81.3881 27.029 81.382C27.0301 81.374 27.0315 81.3656 27.0328 81.3573C27.0341 81.3492 27.0354 81.3412 27.0365 81.3334ZM26.0434 81.2025C26.0449 81.1957 26.0464 81.1894 26.0477 81.1838L26.0484 81.1792C26.4256 78.7623 26.0612 76.2754 24.699 74.3745C22.2638 70.974 18.1396 69.2021 14.0043 67.7M26.0434 81.2025C25.8674 81.9018 25.6783 82.5233 25.3959 83.1078C25.3486 83.2059 25.0935 83.673 24.7923 84.1353C24.7263 83.991 24.6589 83.8464 24.5898 83.702L24.5885 83.6993C24.4105 83.3302 24.2058 82.9341 23.9521 82.5506C23.4814 81.8387 22.6816 81.52 22.2566 81.3507C22.2449 81.346 22.2334 81.3414 22.2223 81.337C21.1122 80.8914 19.8844 80.762 18.8413 80.6522C18.5956 80.6263 18.3602 80.6015 18.1389 80.5739C16.65 80.3878 15.1998 80.1913 13.7808 79.8783C12.4842 79.5921 11.1786 79.1231 10.3274 78.3821C10.8862 78.4845 11.4519 78.5531 12.0215 78.5858C12.9149 78.6372 14.0314 78.6115 15.0433 78.1724C15.4296 78.0048 15.6695 77.6132 15.6433 77.1929C15.6171 76.7726 15.3304 76.4137 14.9263 76.2954C14.0809 76.0478 13.159 75.8731 12.2994 75.7102C11.8525 75.6255 11.4224 75.544 11.0287 75.4571C9.80649 75.186 8.71614 74.7562 7.7039 74.0874C6.85095 73.5247 5.95483 72.7929 5.30812 71.9598C4.96812 71.5219 4.71398 71.079 4.56092 70.6341C6.36065 71.4858 8.41584 72.2333 10.5495 72.1895C11.044 72.1793 11.4568 71.8091 11.5206 71.3186C11.5843 70.8281 11.2799 70.3646 10.8044 70.2284C9.84121 69.9523 8.91551 69.5953 8.04025 69.134C6.75334 68.4562 5.5916 67.5153 4.52642 66.442C3.57525 65.4839 2.75257 64.4278 2.1384 63.2687C1.79516 62.6192 1.55062 61.9648 1.46067 61.339C3.23137 62.7376 5.12022 63.9909 7.16089 65.0226C8.90766 65.9049 10.7594 66.555 12.5407 67.1804C13.0352 67.354 13.5244 67.5257 14.0043 67.7" fill="#342F31"/>
<path fill-rule="evenodd" clip-rule="evenodd" d="M47.6382 81.3334C47.2327 78.7352 47.6075 75.9624 49.1628 73.792C51.799 70.1109 56.2107 68.256 60.3291 66.76C60.8312 66.5777 61.335 66.4008 61.8386 66.2239C63.6106 65.6015 65.3799 64.9801 67.0626 64.1301C69.2514 63.0236 71.2692 61.6481 73.1616 60.0977L73.1648 60.0952C73.206 60.0614 73.2471 60.0276 73.2882 59.9936C73.2898 59.9923 73.2913 59.9911 73.2929 59.9898C73.4295 59.8769 73.5654 59.7632 73.7007 59.6486C73.8373 59.5331 74.0502 59.5703 74.1042 59.7545C74.152 59.9193 74.1874 60.0852 74.2116 60.2517L74.2118 60.2533C74.2231 60.3312 74.232 60.4094 74.2385 60.4875C74.2389 60.4925 74.2393 60.4974 74.2397 60.5023C74.3284 61.6205 73.94 62.7529 73.4202 63.7363C72.7511 64.9994 71.8639 66.1333 70.8581 67.1464C70.1219 67.8882 69.3293 68.5822 68.4708 69.181C68.0317 69.4873 67.5754 69.7686 67.1006 70.0187C66.1563 70.5164 65.1653 70.8975 64.1458 71.1897C65.2578 71.2125 66.36 70.9941 67.4306 70.6452C67.9473 70.4767 68.4568 70.2779 68.9563 70.0611C69.4032 69.8672 69.8423 69.6589 70.2717 69.4452C70.2875 69.4373 70.3036 69.4293 70.3194 69.4214C70.3215 69.4204 70.3236 69.4193 70.3258 69.4182C70.5204 69.321 70.7131 69.2227 70.9036 69.1241C71.0751 69.0352 71.2489 69.1485 71.2656 69.3327C71.2818 69.5055 71.2855 69.6764 71.2777 69.8451L71.2776 69.8473C71.2744 69.9169 71.2692 69.9861 71.2621 70.0549C71.2617 70.0582 71.2614 70.0616 71.261 70.065C71.0434 72.1262 69.1438 73.8519 67.522 74.9217C66.3924 75.6681 65.1844 76.1402 63.862 76.4335C63.8383 76.4388 63.8147 76.4439 63.791 76.4491C63.3773 76.539 62.961 76.6181 62.5447 76.6967C62.5239 76.7006 62.5031 76.7046 62.4824 76.7085C61.6582 76.864 60.834 77.0195 60.0294 77.2551C60.8225 77.5992 61.7477 77.6363 62.5958 77.5875C63.06 77.5609 63.522 77.5084 63.98 77.4314C64.5415 77.337 65.097 77.2057 65.6428 77.0402C65.7561 77.0052 65.9202 77.0804 65.9392 77.2085C65.9731 77.4418 65.9622 77.6722 65.9055 77.8914C65.9048 77.8941 65.9041 77.8967 65.9034 77.8993C65.8933 77.9378 65.8816 77.9761 65.8686 78.0139L65.8676 78.0168C65.8141 78.171 65.7369 78.3186 65.6354 78.4567C64.6296 79.8247 62.707 80.5022 61.1094 80.8548C59.6409 81.1787 58.1503 81.3799 56.6595 81.5662C56.3997 81.5986 56.1374 81.6266 55.8741 81.6547C54.8399 81.765 53.792 81.8768 52.8249 82.265C52.3612 82.4503 51.8414 82.6714 51.5566 83.1023C51.3395 83.4306 51.1574 83.7801 50.9869 84.1336C50.8081 84.5073 50.6397 84.8853 50.4735 85.2643C50.4562 85.3035 50.4397 85.3445 50.423 85.386C50.3701 85.5172 50.315 85.6539 50.2257 85.7577C49.8435 86.2013 48.5361 83.87 48.3783 83.5428C48.0491 82.8612 47.8395 82.156 47.6562 81.4254V81.4243C47.6545 81.4167 47.6524 81.4086 47.6504 81.4007C47.6487 81.3944 47.6471 81.3881 47.6457 81.382C47.6446 81.374 47.6432 81.3656 47.6419 81.3573C47.6406 81.3492 47.6393 81.3412 47.6382 81.3334ZM48.6313 81.2025C48.6298 81.1957 48.6283 81.1894 48.6269 81.1838L48.6263 81.1792C48.2491 78.7623 48.6134 76.2754 49.9757 74.3745C52.4108 70.974 56.5351 69.2021 60.6704 67.7M48.6313 81.2025C48.8073 81.9018 48.9964 82.5233 49.2788 83.1078C49.326 83.2059 49.5812 83.673 49.8824 84.1353C49.9484 83.991 50.0158 83.8464 50.0849 83.702L50.0862 83.6993C50.2642 83.3302 50.4689 82.9341 50.7226 82.5506C51.1933 81.8387 51.9931 81.52 52.4181 81.3507C52.4298 81.346 52.4412 81.3414 52.4524 81.337C53.5624 80.8914 54.7903 80.762 55.8334 80.6522C56.0791 80.6263 56.3145 80.6015 56.5358 80.5739C58.0247 80.3878 59.4748 80.1913 60.8939 79.8783C62.1905 79.5921 63.496 79.1231 64.3473 78.3821C63.7885 78.4845 63.2228 78.5531 62.6532 78.5859C61.7598 78.6373 60.6433 78.6115 59.6314 78.1724C59.2451 78.0048 59.0052 77.6132 59.0314 77.1929C59.0576 76.7726 59.3443 76.4137 59.7484 76.2954C60.5938 76.0478 61.5157 75.8731 62.3753 75.7102C62.8222 75.6255 63.2523 75.544 63.646 75.4571C64.8682 75.186 65.9585 74.7562 66.9708 74.0874C67.8237 73.5247 68.7199 72.7929 69.3666 71.9598C69.7066 71.5219 69.9607 71.079 70.1138 70.6341C68.314 71.4858 66.2588 72.2333 64.1252 72.1895C63.6307 72.1793 63.2179 71.8091 63.1541 71.3186C63.0904 70.8281 63.3948 70.3646 63.8703 70.2284C64.8335 69.9523 65.7592 69.5953 66.6344 69.134C67.9213 68.4562 69.0831 67.5153 70.1483 66.442C71.0994 65.4839 71.9221 64.4278 72.5363 63.2687C72.8795 62.6192 73.1241 61.9648 73.214 61.339C71.4433 62.7376 69.5545 63.9909 67.5138 65.0226C65.767 65.9049 63.9153 66.555 62.134 67.1804C61.6395 67.354 61.1503 67.5257 60.6704 67.7" fill="#342F31"/>
<path d="M37.6686 69.8424C57.8022 69.8424 74.1484 83.5795 74.1484 100.5H0.526367C0.526367 83.5795 17.1691 69.8424 37.6686 69.8424Z" fill="#342F31"/>
</svg>
