<svg width="75" height="101" viewBox="0 0 75 101" fill="none" xmlns="http://www.w3.org/2000/svg">
<g clip-path="url(#clip0)">
<path fill-rule="evenodd" clip-rule="evenodd" d="M67.9161 61.7296C65.5453 63.5135 61.6545 68.798 65.3198 75.5527L65.3232 75.559L65.3264 75.5655C69.4405 83.8098 72.5617 100.327 72.5617 100.327H59.7513C59.7513 100.327 59.7511 97.3077 61.8235 93.567C63.8882 89.8402 65.8548 84.4261 61.8235 76.3443C57.9108 69.1258 64.664 63.0159 67.2678 61.0567L67.9161 61.7296Z" fill="#D04747"/>
<path d="M72.4119 57.0264L69.9941 64.1906L64.9668 58.3461L72.4119 57.0264Z" fill="#D04747"/>
<path d="M37.6619 69.8424C55.0588 69.8424 69.1619 55.7394 69.1619 38.3424C69.1619 20.9454 55.0588 6.84238 37.6619 6.84238C20.2649 6.84238 6.16187 20.9454 6.16187 38.3424C6.16187 55.7394 20.2649 69.8424 37.6619 69.8424Z" fill="#342F31"/>
<path d="M37.993 69.8424C58.1267 69.8424 74.4729 83.5795 74.4729 100.5H0.85083C0.85083 83.5795 17.4936 69.8424 37.993 69.8424Z" fill="#342F31"/>
<path d="M13.7504 18.455C15.4983 16.1585 18.1551 13.8621 21.7209 11.5656C19.7391 10.4 18.3243 9.36668 17.4764 8.46564C15.9402 6.83307 14.4514 4.83307 13.9119 2.86752C13.7114 2.13662 13.9543 0.0303578 13.7504 0.70969C12.5384 4.74588 12.5384 10.661 13.7504 18.455ZM61.7131 18.455C59.9652 16.1585 57.3084 13.8621 53.7427 11.5656C55.7244 10.4 57.1391 9.36668 57.9869 8.46564C59.5234 6.83307 61.0122 4.83307 61.5514 2.86752C61.7521 2.13662 61.509 0.0303578 61.7131 0.70969C62.9249 4.74588 62.9249 10.661 61.7131 18.455Z" fill="#D04747"/>
</g>
<defs>
<clipPath id="clip0">
<rect width="73.8318" height="100" fill="white" transform="translate(0.745972 0.5)"/>
</clipPath>
</defs>
</svg>
